<!-- Generated by IcoMoon.io -->
<svg version="1.1" xmlns="http://www.w3.org/2000/svg" width="32" height="32" viewBox="0 0 32 32">
<title>email-black</title>
<path d="M26.687 5.337h-21.35c-1.468 0-2.655 1.201-2.655 2.669l-0.014 16.012c0 1.468 1.201 2.669 2.669 2.669h21.35c1.468 0 2.669-1.201 2.669-2.669v-16.012c0-1.468-1.201-2.669-2.669-2.669zM26.154 11.009l-9.433 5.896c-0.201 0.126-0.446 0.201-0.708 0.201s-0.507-0.075-0.714-0.204l0.006 0.003-9.433-5.896c-0.336-0.201-0.557-0.563-0.557-0.976 0-0.626 0.507-1.133 1.133-1.133 0.233 0 0.449 0.070 0.629 0.19l-0.004-0.003 8.94 5.59 8.94-5.592c0.176-0.118 0.392-0.188 0.625-0.188 0.626 0 1.133 0.507 1.133 1.133 0 0.413-0.221 0.775-0.552 0.973l-0.005 0.003z"></path>
</svg>
