<!-- Generated by IcoMoon.io -->
<svg version="1.1" xmlns="http://www.w3.org/2000/svg" width="32" height="32" viewBox="0 0 32 32">
<title>phone-black</title>
<path d="M24.901 19.79l-3.27-0.374c-0.090-0.011-0.194-0.018-0.299-0.018-0.708 0-1.349 0.287-1.813 0.751l-2.37 2.37c-3.672-1.895-6.59-4.814-8.434-8.378l-0.051-0.108 2.384-2.379c0.464-0.464 0.751-1.104 0.751-1.812 0-0.106-0.006-0.21-0.019-0.312l0.001 0.012-0.374-3.245c-0.155-1.288-1.241-2.277-2.559-2.277-0.001 0-0.002 0-0.003 0h-2.227c-1.455 0-2.665 1.21-2.576 2.665 0.683 10.995 9.478 19.775 20.46 20.458 1.454 0.089 2.665-1.121 2.665-2.576v-2.227c0-0.004 0-0.008 0-0.012 0-1.309-0.985-2.387-2.255-2.534l-0.012-0.001z"></path>
</svg>
